<svg width="20" height="19" viewBox="0 0 20 19" fill="none" xmlns="http://www.w3.org/2000/svg">
<path d="M9.28264 1.4533C9.51312 0.986362 9.62836 0.752892 9.78481 0.678299C9.92093 0.613398 10.0791 0.613398 10.2152 0.678299C10.3716 0.752892 10.4869 0.986362 10.7174 1.4533L12.904 5.88327C12.9721 6.02112 13.0061 6.09004 13.0558 6.14356C13.0999 6.19094 13.1527 6.22933 13.2113 6.25661C13.2775 6.28741 13.3536 6.29852 13.5057 6.32076L18.397 7.03569C18.912 7.11098 19.1696 7.14862 19.2888 7.27442C19.3925 7.38388 19.4412 7.53428 19.4215 7.68376C19.3988 7.85556 19.2124 8.03716 18.8395 8.40037L15.3014 11.8464C15.1911 11.9538 15.136 12.0075 15.1004 12.0714C15.0689 12.128 15.0487 12.1902 15.0409 12.2545C15.0321 12.3271 15.0451 12.403 15.0711 12.5547L15.9059 17.4221C15.994 17.9355 16.038 18.1922 15.9553 18.3445C15.8833 18.477 15.7553 18.57 15.607 18.5975C15.4366 18.6291 15.2061 18.5078 14.7451 18.2654L10.3724 15.9658C10.2361 15.8942 10.168 15.8583 10.0962 15.8443C10.0327 15.8318 9.96732 15.8318 9.90378 15.8443C9.83201 15.8583 9.76389 15.8942 9.62764 15.9658L5.25491 18.2654C4.7939 18.5078 4.5634 18.6291 4.39296 18.5975C4.24467 18.57 4.11671 18.477 4.04472 18.3445C3.96199 18.1922 4.00601 17.9355 4.09406 17.4221L4.92887 12.5547C4.9549 12.403 4.96791 12.3271 4.9591 12.2545C4.95131 12.1902 4.9311 12.128 4.89959 12.0714C4.86401 12.0075 4.80886 11.9538 4.69857 11.8464L1.16054 8.40037C0.787648 8.03716 0.601199 7.85556 0.578511 7.68376C0.558771 7.53428 0.607538 7.38388 0.711235 7.27442C0.83042 7.14862 1.08796 7.11098 1.60303 7.03569L6.4943 6.32076C6.64641 6.29852 6.72247 6.28741 6.7887 6.25661C6.84735 6.22933 6.90015 6.19094 6.94417 6.14356C6.99389 6.09004 7.02791 6.02112 7.09596 5.88327L9.28264 1.4533Z" fill="#FFA928"/>
</svg>
